{"scene":0,"scenes":[{"nodes":[0]}],"asset":{"version":"2.0","generator":"https://github.com/mikedh/trimesh"},"accessors":[{"componentType":5125,"type":"SCALAR","bufferView":0,"count":866406,"max":[194106],"min":[0]},{"componentType":5126,"type":"VEC3","byteOffset":0,"bufferView":1,"count":194107,"max":[0.2433544397354126,0.5001146793365479,0.14976343512535095],"min":[-0.23126891255378723,-0.5008828043937683,-0.14859211444854736]},{"componentType":5126,"type":"VEC2","byteOffset":0,"bufferView":4,"count":194107,"max":[0.9995805621147156,0.9995802044868469],"min":[0.0,0.0]},{"componentType":5126,"count":194107,"type":"VEC3","byteOffset":0,"bufferView":5,"max":[1.0,0.9999921321868896,1.0],"min":[-0.999995768070221,-1.0,-0.9999949336051941]}],"meshes":[{"name":"geometry_0","extras":{},"primitives":[{"attributes":{"POSITION":1,"TEXCOORD_0":2,"NORMAL":3},"indices":0,"mode":4,"material":0}]}],"images":[{"uri":"model2-native-image-0.png","mimeType":"image/png"},{"uri":"model2-native-image-1.png","mimeType":"image/png"}],"textures":[{"source":0},{"source":1}],"materials":[{"pbrMetallicRoughness":{"baseColorTexture":{"index":0},"baseColorFactor":[1.0,1.0,1.0,1.0],"roughnessFactor":1.0,"metallicFactor":1.0,"metallicRoughnessTexture":{"index":1}},"alphaMode":"OPAQUE","doubleSided":false}],"nodes":[{"name":"world","children":[1]},{"name":"geometry_0","mesh":0}],"buffers":[{"byteLength":15804556,"uri":"model2-native.bin"}],"bufferViews":[{"buffer":0,"byteOffset":0,"byteLength":3465624},{"buffer":0,"byteOffset":3465624,"byteLength":2329284},{"buffer":0,"byteOffset":5794908,"byteLength":6104651},{"buffer":0,"byteOffset":11899560,"byteLength":22854},{"buffer":0,"byteOffset":11922416,"byteLength":1552856},{"buffer":0,"byteOffset":13475272,"byteLength":2329284}]}